<?xml version="1.0" encoding="iso-8859-1"?>
<!-- Generator: Adobe Illustrator 18.0.0, SVG Export Plug-In . SVG Version: 6.00 Build 0)  -->
<!DOCTYPE svg PUBLIC "-//W3C//DTD SVG 1.1//EN" "http://www.w3.org/Graphics/SVG/1.1/DTD/svg11.dtd">
<svg version="1.1" id="Capa_1" xmlns="http://www.w3.org/2000/svg" xmlns:xlink="http://www.w3.org/1999/xlink" x="0px" y="0px"
	 viewBox="0 0 59.003 59.003" style="enable-background:new 0 0 59.003 59.003;" xml:space="preserve">
<path d="M7,53.146H0v-1c0-12.351,5.694-14.943,10.471-14.943c3.284,0,6.377,1.25,7.724,1.877c2.013-1.971,4.435-2.405,6.179-2.405
	c0.77,0,1.449,0.084,1.969,0.178c0.864-2.487,3.436-3.96,4.658-4.537v-4.256c-2.49-1.544-3.21-4.301-3.417-5.667
	c-12.447-2.641-14.245-11.764-14.317-12.158l-0.147-0.807l9.027-3.569l0.248,1.154c0.041,0.183,1.048,4.424,6.022,5.597
	c1.222-1.713,5.176-6.485,11.321-6.485c3.87,0,7.836,1.921,11.788,5.71c7.228,6.93,9.41,16.976,5.695,26.218
	c-3.666,9.121-12.063,15.014-21.391,15.014c-0.204,0-0.409-0.003-0.614-0.008c-0.902,0.105-8.049,0.737-16.399-4.007
	c-0.604,0.488-1.619,1.077-3.007,1.077c-1.759,0-3.586-0.936-5.432-2.781c-0.291-0.291-0.629-0.444-0.978-0.444
	C8.207,46.901,7,48.703,7,52.146V53.146z"/>
<g>
</g>
<g>
</g>
<g>
</g>
<g>
</g>
<g>
</g>
<g>
</g>
<g>
</g>
<g>
</g>
<g>
</g>
<g>
</g>
<g>
</g>
<g>
</g>
<g>
</g>
<g>
</g>
<g>
</g>
</svg>
