<?xml version="1.0" encoding="iso-8859-1"?>
<!-- Generator: Adobe Illustrator 18.0.0, SVG Export Plug-In . SVG Version: 6.00 Build 0)  -->
<!DOCTYPE svg PUBLIC "-//W3C//DTD SVG 1.1//EN" "http://www.w3.org/Graphics/SVG/1.1/DTD/svg11.dtd">
<svg version="1.1" id="Capa_1" xmlns="http://www.w3.org/2000/svg" xmlns:xlink="http://www.w3.org/1999/xlink" x="0px" y="0px"
	 viewBox="0 0 59.555 59.555" style="enable-background:new 0 0 59.555 59.555;" xml:space="preserve">
<g>
	<path d="M6.837,25.665l-0.642-0.444l-1.944,1.708C3.457,27.626,3.001,28.645,3,29.723s0.453,2.097,1.246,2.796l2.016,1.779
		l0.647-0.465C8.218,32.893,9,31.376,9,29.778C9,28.138,8.191,26.601,6.837,25.665z"/>
	<path d="M53.39,23.428c-2.326-2.405-4.648-4.29-7.099-5.76c-5.068-3.041-10.815-4.701-16.674-4.859
		c-0.206-0.007-0.408-0.031-0.617-0.031c-0.04,0-0.08,0.006-0.12,0.006c-0.059,0-0.118-0.006-0.178-0.006
		c-8.308,0-16.382,3.072-22.733,8.65l-3.698,3.247C0.83,25.942,0.002,27.781,0,29.72c-0.002,1.939,0.822,3.779,2.261,5.049
		l3.746,3.306c6.361,5.612,14.457,8.703,22.794,8.703c0.041,0,0.082-0.004,0.123-0.004c0.026,0,0.05,0.004,0.076,0.004
		c0.11,0,0.217-0.014,0.326-0.017c5.457-0.085,10.878-1.491,15.708-4.102c3.001-1.622,5.9-3.879,8.616-6.708l5.904-6.149
		L53.39,23.428z M18.351,43.009c-4.005-1.384-7.756-3.554-11.021-6.435l-3.746-3.306C2.576,32.38,1.999,31.087,2,29.722
		c0.001-1.365,0.582-2.657,1.591-3.544l3.698-3.247c3.302-2.9,7.097-5.077,11.149-6.45C14.522,19.598,12,24.395,12,29.778
		C12,35.121,14.484,39.891,18.351,43.009z M37,30.778h-1.08c-0.043,0.3-0.104,0.594-0.184,0.881l0.986,0.435
		c0.505,0.223,0.734,0.813,0.511,1.318c-0.165,0.374-0.531,0.597-0.916,0.597c-0.135,0-0.272-0.027-0.403-0.085l-0.989-0.437
		c-0.102,0.163-0.212,0.321-0.327,0.475l0.766,0.766c0.391,0.391,0.391,1.023,0,1.414c-0.195,0.195-0.451,0.293-0.707,0.293
		s-0.512-0.098-0.707-0.293l-0.766-0.766c-0.24,0.18-0.489,0.347-0.751,0.495l0.39,1.005c0.199,0.515-0.056,1.094-0.571,1.294
		c-0.119,0.046-0.241,0.067-0.361,0.067c-0.4,0-0.779-0.242-0.933-0.639l-0.389-1.005c-0.186,0.043-0.376,0.076-0.568,0.104v1.08
		c0,0.553-0.448,1-1,1s-1-0.447-1-1v-1.08c-0.3-0.043-0.594-0.104-0.881-0.184L26.683,37.5c-0.165,0.374-0.531,0.596-0.915,0.596
		c-0.135,0-0.272-0.027-0.404-0.085c-0.505-0.224-0.733-0.814-0.51-1.319l0.437-0.989c-0.163-0.102-0.321-0.212-0.474-0.327
		l-0.766,0.766c-0.195,0.195-0.451,0.293-0.707,0.293s-0.512-0.098-0.707-0.293c-0.391-0.391-0.391-1.023,0-1.414l0.766-0.766
		c-0.18-0.24-0.347-0.489-0.495-0.752L21.901,33.6c-0.119,0.046-0.241,0.067-0.361,0.067c-0.401,0-0.779-0.242-0.933-0.639
		c-0.199-0.516,0.057-1.095,0.572-1.294l1.004-0.389c-0.043-0.187-0.076-0.376-0.104-0.568H21c-0.552,0-1-0.447-1-1s0.448-1,1-1
		h1.08c0.043-0.3,0.104-0.594,0.184-0.881l-0.986-0.435c-0.505-0.223-0.734-0.813-0.511-1.318c0.223-0.505,0.813-0.733,1.319-0.512
		l0.989,0.437c0.102-0.163,0.212-0.321,0.327-0.475l-0.766-0.766c-0.391-0.391-0.391-1.023,0-1.414s1.023-0.391,1.414,0l0.766,0.766
		c0.24-0.18,0.489-0.347,0.751-0.495l-0.39-1.005c-0.199-0.515,0.056-1.094,0.571-1.294c0.511-0.198,1.093,0.055,1.294,0.571
		l0.389,1.005c0.186-0.043,0.376-0.076,0.568-0.104v-1.08c0-0.553,0.448-1,1-1s1,0.447,1,1v1.08c0.3,0.043,0.594,0.104,0.881,0.184
		l0.436-0.987c0.223-0.507,0.814-0.733,1.319-0.511c0.505,0.224,0.733,0.814,0.51,1.319l-0.437,0.989
		c0.163,0.102,0.321,0.212,0.474,0.327l0.766-0.766c0.391-0.391,1.023-0.391,1.414,0s0.391,1.023,0,1.414l-0.766,0.766
		c0.18,0.24,0.347,0.489,0.495,0.752l1.006-0.389c0.516-0.198,1.095,0.057,1.293,0.571c0.199,0.516-0.057,1.095-0.572,1.294
		l-1.004,0.389c0.043,0.187,0.076,0.376,0.104,0.568H37c0.552,0,1,0.447,1,1S37.552,30.778,37,30.778z M52.208,34.567
		c-2.573,2.68-5.306,4.811-8.125,6.333c-1.331,0.719-2.713,1.331-4.126,1.855C43.648,39.634,46,34.978,46,29.778
		c0-5.164-2.322-9.788-5.967-12.908c1.804,0.682,3.558,1.511,5.229,2.514c2.299,1.379,4.488,3.157,6.69,5.436l4.826,4.989
		L52.208,34.567z"/>
</g>
<g>
</g>
<g>
</g>
<g>
</g>
<g>
</g>
<g>
</g>
<g>
</g>
<g>
</g>
<g>
</g>
<g>
</g>
<g>
</g>
<g>
</g>
<g>
</g>
<g>
</g>
<g>
</g>
<g>
</g>
</svg>
