<?xml version="1.0" encoding="iso-8859-1"?>
<!-- Generator: Adobe Illustrator 18.0.0, SVG Export Plug-In . SVG Version: 6.00 Build 0)  -->
<!DOCTYPE svg PUBLIC "-//W3C//DTD SVG 1.1//EN" "http://www.w3.org/Graphics/SVG/1.1/DTD/svg11.dtd">
<svg version="1.1" id="Capa_1" xmlns="http://www.w3.org/2000/svg" xmlns:xlink="http://www.w3.org/1999/xlink" x="0px" y="0px"
	 viewBox="0 0 59.413 59.413" style="enable-background:new 0 0 59.413 59.413;" xml:space="preserve">
<g>
	<polygon points="46.687,7.704 50.701,16.88 53.329,14.252 49.022,5.369 	"/>
	<polygon points="42.831,11.56 46.819,20.762 49.183,18.398 45.169,9.223 	"/>
	<path d="M54.825,12.756l3.222-3.222c0.881-0.88,1.366-2.051,1.366-3.297c0-1.246-0.485-2.417-1.366-3.297s-2.052-1.366-3.297-1.366
		c-1.246,0-2.417,0.485-3.298,1.366l-0.934,0.934L54.825,12.756z"/>
	<path d="M41.31,13.081L18.127,36.265c-0.509,0.509-0.724,1.223-0.63,1.924L0.293,55.393c-0.239,0.239-0.342,0.583-0.271,0.915
		s0.304,0.604,0.619,0.726c0.086,0.033,2.129,0.806,4.908,0.806c3.52,0,6.666-1.25,9.11-3.623l7.123-7.124
		c0.236-0.236,0.339-0.575,0.273-0.903l-0.542-2.713l2.305-2.306l0.354,0.082c0.238,0.055,0.483,0.083,0.729,0.083
		c0.866,0,1.68-0.337,2.293-0.95l18.103-18.103L41.31,13.081z M10.173,53.283c-0.19,0.18-0.44,0.29-0.71,0.29
		c-0.26,0-0.52-0.11-0.71-0.29c-0.18-0.19-0.29-0.45-0.29-0.71c0-0.26,0.11-0.52,0.29-0.71c0.38-0.37,1.05-0.37,1.42,0
		c0.19,0.19,0.29,0.45,0.29,0.71C10.463,52.833,10.364,53.093,10.173,53.283z M14.173,49.28l-2,2
		c-0.195,0.195-0.451,0.293-0.707,0.293s-0.512-0.098-0.707-0.293c-0.391-0.391-0.391-1.023,0-1.414l2-2
		c0.391-0.391,1.023-0.391,1.414,0S14.564,48.89,14.173,49.28z"/>
</g>
<g>
</g>
<g>
</g>
<g>
</g>
<g>
</g>
<g>
</g>
<g>
</g>
<g>
</g>
<g>
</g>
<g>
</g>
<g>
</g>
<g>
</g>
<g>
</g>
<g>
</g>
<g>
</g>
<g>
</g>
</svg>
