<?xml version="1.0" encoding="iso-8859-1"?>
<!-- Generator: Adobe Illustrator 18.0.0, SVG Export Plug-In . SVG Version: 6.00 Build 0)  -->
<!DOCTYPE svg PUBLIC "-//W3C//DTD SVG 1.1//EN" "http://www.w3.org/Graphics/SVG/1.1/DTD/svg11.dtd">
<svg version="1.1" id="Capa_1" xmlns="http://www.w3.org/2000/svg" xmlns:xlink="http://www.w3.org/1999/xlink" x="0px" y="0px"
	 viewBox="0 0 56 56" style="enable-background:new 0 0 56 56;" xml:space="preserve">
<path d="M42.75,1.822c-4.514,0-9.524,3.714-9.749,9.713c-0.07,1.865,0.766,3.792,1.65,5.832c0.197,0.454,0.394,0.912,0.584,1.373
	c0.938-4.246,4.629-7.622,8.764-7.622c0.553,0,1,0.447,1,1s-0.447,1-1,1c-3.663,0-7,3.672-7,7.704c0,0.448-0.303,0.805-0.709,0.931
	C33.571,20.46,31,16.299,31,11.178c0-0.553-0.447-1-1-1s-1,0.447-1,1c0,4.996,2.194,9.536,5.214,11.686
	c-2.759,1.016-4.998,3.102-6.214,5.759c-1.215-2.657-3.455-4.742-6.214-5.759C24.806,20.714,27,16.174,27,11.178
	c0-0.553-0.447-1-1-1s-1,0.447-1,1c0,5.121-2.571,9.283-5.291,10.575C19.303,21.627,19,21.27,19,20.822c0-4.032-3.337-7.704-7-7.704
	c-0.553,0-1-0.447-1-1s0.447-1,1-1c4.135,0,7.827,3.376,8.764,7.622c0.19-0.461,0.387-0.919,0.584-1.373
	c0.885-2.04,1.721-3.967,1.65-5.832c-0.225-5.999-5.235-9.713-9.749-9.713c-7.306,0-13.25,9.869-13.25,22s5.944,22,13.25,22
	c2.692,0,7.704,0,9.693-5.669c0.787-2.243-0.213-4.899-1.371-7.975c-0.567-1.506-1.173-3.129-1.583-4.787
	c-1.13,3.634-4.057,6.727-7.989,6.727c-0.553,0-1-0.447-1-1s0.447-1,1-1c3.862,0,6.462-4.075,6.502-7.915
	C23.231,24.466,27,28.384,27,33.178v20c0,0.553,0.447,1,1,1s1-0.447,1-1v-20c0-4.793,3.769-8.712,8.498-8.975
	c0.04,3.84,2.64,7.915,6.502,7.915c0.553,0,1,0.447,1,1s-0.447,1-1,1c-3.932,0-6.859-3.092-7.989-6.727
	c-0.411,1.658-1.016,3.282-1.583,4.787c-1.158,3.075-2.158,5.731-1.371,7.975c1.989,5.669,7.001,5.669,9.693,5.669
	c7.306,0,13.25-9.869,13.25-22S50.056,1.822,42.75,1.822z M12,24.178c-0.553,0-1-0.447-1-1s0.447-1,1-1h6c-0.553,0-1,0.447-1,1
	s0.447,1,1,1H12z M44,24.178h-6c0.553,0,1-0.447,1-1s-0.447-1-1-1h6c0.553,0,1,0.447,1,1S44.553,24.178,44,24.178z"/>
<g>
</g>
<g>
</g>
<g>
</g>
<g>
</g>
<g>
</g>
<g>
</g>
<g>
</g>
<g>
</g>
<g>
</g>
<g>
</g>
<g>
</g>
<g>
</g>
<g>
</g>
<g>
</g>
<g>
</g>
</svg>
