<?xml version="1.0" encoding="iso-8859-1"?>
<!-- Generator: Adobe Illustrator 19.0.0, SVG Export Plug-In . SVG Version: 6.00 Build 0)  -->
<svg version="1.1" id="Layer_1" xmlns="http://www.w3.org/2000/svg" xmlns:xlink="http://www.w3.org/1999/xlink" x="0px" y="0px"
	 viewBox="0 0 512 512" style="enable-background:new 0 0 512 512;" xml:space="preserve">
<g>
	<g>
		<g>
			<path d="M493.49,26.034h-50.914V18.51c0-10.214-8.305-18.51-18.51-18.51h-32.404c-10.205,0-18.51,8.296-18.51,18.51v7.741
				C183.869,30.824,30.824,183.86,26.251,373.152H18.51c-10.205,0-18.51,8.296-18.51,18.51v32.404c0,10.205,8.305,18.51,18.51,18.51
				h7.524v50.914c0,10.205,8.305,18.51,18.51,18.51h119.183c10.205,0,18.51-8.305,18.51-18.51v-50.914h7.524
				c10.205,0,18.51-8.305,18.51-18.51v-32.404c0-10.214-8.305-18.51-18.51-18.51h-15.985
				c2.222-53.803,24.914-102.409,60.529-138.188v-44.049h-17.356c-4.79,0-8.678-3.888-8.678-8.678v-26.034h-17.356
				c-4.79,0-8.678-3.888-8.678-8.678s3.888-8.678,8.678-8.678h26.034c4.79,0,8.678,3.888,8.678,8.678v26.034h17.356
				c4.79,0,8.678,3.888,8.678,8.678v37.185c33.566-26.954,75.654-43.581,121.492-45.49v15.829c0,10.205,8.305,18.51,18.51,18.51
				h32.404c10.205,0,18.51-8.305,18.51-18.51v-7.524h50.914c10.205,0,18.51-8.305,18.51-18.51V44.544
				C512,34.33,503.695,26.034,493.49,26.034z M189.761,390.508c0.633,0,1.154,0.512,1.154,1.154v32.404
				c0,0.634-0.521,1.154-1.154,1.154h-7.524H26.034H18.51c-0.633,0-1.154-0.521-1.154-1.154v-32.404
				c0-0.642,0.521-1.154,1.154-1.154h7.524h147.525H189.761z M425.22,26.034v156.203v7.524c0,0.633-0.521,1.154-1.154,1.154h-32.404
				c-0.633,0-1.154-0.521-1.154-1.154v-16.202V26.034V18.51c0-0.642,0.521-1.154,1.154-1.154h32.404
				c0.633,0,1.154,0.512,1.154,1.154V26.034z"/>
			<path d="M293.585,238.155c-3.228-4.816-11.212-4.816-14.423,0l-25.635,38.313c-20.619,33.098-10.717,54.289,1.232,66.23
				c8.713,8.713,20.168,13.078,31.614,13.078c11.455,0,22.901-4.365,31.623-13.078c17.044-17.044,17.399-43.858,1.076-66.473
				L293.585,238.155z"/>
			<path d="M389.043,350.968c-3.22-4.816-11.212-4.808-14.423,0l-25.635,38.313c-20.619,33.098-10.717,54.289,1.232,66.23
				c8.713,8.713,20.168,13.078,31.614,13.078c11.455,0,22.901-4.365,31.622-13.078c17.044-17.044,17.399-43.858,1.076-66.473
				L389.043,350.968z"/>
		</g>
	</g>
</g>
<g>
</g>
<g>
</g>
<g>
</g>
<g>
</g>
<g>
</g>
<g>
</g>
<g>
</g>
<g>
</g>
<g>
</g>
<g>
</g>
<g>
</g>
<g>
</g>
<g>
</g>
<g>
</g>
<g>
</g>
</svg>
